<svg width="245" height="45" viewBox="0 0 245 45" fill="none" xmlns="http://www.w3.org/2000/svg">
<path d="M14.8219 27.1773C15.3035 27.5564 15.9144 27.7651 16.5421 27.7651C17.6129 27.7651 18.6041 27.14 19.065 26.1783C19.2513 25.7947 19.3461 25.3851 19.3461 24.9612C19.3461 23.7362 18.5648 22.6626 17.4123 22.2925C17.1302 22.1984 16.8375 22.1507 16.5421 22.1507C15.4129 22.1507 14.397 22.8245 13.9491 23.8774C13.805 24.2273 13.7316 24.5918 13.7316 24.9612C13.7316 25.8294 14.1438 26.6613 14.8219 27.1773ZM15.7884 24.648C15.9183 24.3425 16.2143 24.1449 16.5421 24.1449C16.6226 24.1449 16.7034 24.1582 16.7923 24.1877C17.1218 24.2935 17.3519 24.6116 17.3519 24.9612C17.3519 25.0803 17.325 25.1965 17.2688 25.3114C17.0559 25.7554 16.4301 25.904 16.0426 25.6006C15.8443 25.4496 15.7258 25.2104 15.7258 24.9612C15.7258 24.8511 15.7469 24.7486 15.7884 24.648Z" fill="url(#paint0_linear_3_2)"/>
<path d="M3.09414 22.3747C4.00988 22.3747 4.82512 21.9672 5.39219 21.333L7.26285 22.1214C7.22638 22.2409 7.18634 22.3603 7.15485 22.4798H5.93998C5.44534 22.4798 5.02534 22.8427 4.95361 23.3321C4.87798 23.8463 4.83969 24.3941 4.83969 24.9612C4.83969 25.5318 4.87701 26.0624 4.95361 26.5837C5.02534 27.0732 5.44534 27.436 5.93998 27.436H7.15258C7.37069 28.2747 7.70663 29.0891 8.14674 29.8453L7.29182 30.7045C6.94258 31.055 6.90364 31.6087 7.19997 32.005C7.63205 32.5826 8.11733 33.1087 8.64314 33.5848L6.41227 36.4795C5.85904 36.227 5.24658 36.0826 4.59983 36.0826C2.18209 36.0826 0.214866 38.0498 0.214866 40.4676C0.214866 42.8853 2.18209 44.8525 4.59983 44.8525C7.01756 44.8525 8.98479 42.8853 8.98479 40.4676C8.98479 39.4164 8.61226 38.4509 7.99318 37.6947L10.5513 34.3754C10.6399 34.3293 10.7266 34.2773 10.8004 34.2033L11.6567 33.3471C12.41 33.7895 13.2143 34.1225 14.0608 34.3426V35.5568C14.0608 36.0514 14.4236 36.4714 14.9131 36.5432C15.4564 36.623 16.0046 36.6636 16.5421 36.6636C17.0754 36.6636 17.6213 36.623 18.1646 36.5432C18.6541 36.4714 19.017 36.0514 19.017 35.5568V34.3432C19.8686 34.1228 20.6729 33.7902 21.4224 33.3487L22.277 34.2033C22.6269 34.5542 23.1815 34.5938 23.5791 34.2968C24.4526 33.6438 25.227 32.8739 25.881 32.0092C26.1812 31.6123 26.1429 31.0547 25.7908 30.7028L25.4352 30.3472L33.9828 34.4658C33.7772 35.1196 33.6655 35.8146 33.6655 36.5354C33.6655 40.3468 36.7665 43.4475 40.5779 43.4475C44.3894 43.4475 47.49 40.3468 47.49 36.5354C47.49 32.7239 44.3894 29.623 40.5779 29.623C38.1971 29.623 36.0937 30.8331 34.8499 32.6703L25.6707 28.2475C25.7662 27.9813 25.8531 27.7115 25.9245 27.436H27.1377C27.6324 27.436 28.0524 27.0732 28.1241 26.5837C28.2007 26.0624 28.238 25.5318 28.238 24.9612C28.238 24.3941 28.1997 23.8463 28.1241 23.3321C28.0524 22.8427 27.6324 22.4798 27.1377 22.4798H25.9235C25.7035 21.6337 25.3705 20.8294 24.9281 20.076L25.7843 19.2198C26.1338 18.8706 26.1747 18.3178 25.88 17.9209C25.2374 17.0543 24.4668 16.2786 23.5895 15.6155C23.1926 15.3162 22.6346 15.3542 22.2835 15.706L21.4194 16.57C21.1024 16.3846 20.7771 16.2216 20.4471 16.0772L22.2557 10.4578C22.4443 10.4785 22.6354 10.4908 22.8294 10.4908C25.7216 10.4908 28.0745 8.13765 28.0745 5.2454C28.0745 2.35314 25.7216 0 22.8294 0C19.9371 0 17.584 2.35314 17.584 5.2454C17.584 7.24176 18.7056 8.98032 20.3513 9.86644L18.9766 14.1378C18.8855 13.7461 18.5773 13.4332 18.1646 13.3727C17.1328 13.2211 15.9365 13.2217 14.9131 13.3727C14.4236 13.4444 14.0608 13.8644 14.0608 14.359V15.5733C13.2143 15.7933 12.41 16.1263 11.657 16.5687L10.7943 15.706C10.4424 15.3542 9.88482 15.3162 9.4882 15.6155C8.61088 16.2786 7.84035 17.0543 7.1977 17.9209C6.90299 18.3178 6.94388 18.8706 7.29345 19.2198L8.14967 20.076C8.11084 20.1426 8.08159 20.2186 8.04414 20.2865L6.1669 19.4954C6.17197 19.4231 6.1886 19.3541 6.1886 19.2805C6.1886 17.5742 4.80041 16.1861 3.09414 16.1861C1.38787 16.1861 0 17.5742 0 19.2805C0 20.9868 1.38787 22.3747 3.09414 22.3747ZM8.94357 23.6392C9.03542 23.0829 9.20095 22.5145 9.43205 21.9582C9.65405 21.4376 9.9241 20.9543 10.2344 20.5223C10.5194 20.1257 10.4749 19.5811 10.1296 19.2357L9.34019 18.4464C9.55571 18.2059 9.78421 17.9761 10.0254 17.7573L10.8167 18.5486C11.1607 18.8933 11.7037 18.9378 12.1003 18.6557C13.0364 17.9887 14.0871 17.5535 15.2234 17.362C15.7034 17.2812 16.0549 16.8657 16.0549 16.3788V15.2643C16.3724 15.2497 16.7054 15.2497 17.0228 15.2643V16.3788C17.0228 16.8631 17.3711 17.2776 17.8482 17.361C18.2247 17.4269 18.5746 17.5142 18.9112 17.6275C19.6398 17.8543 20.3357 18.2007 20.9793 18.657C21.376 18.9378 21.9177 18.8927 22.2611 18.5486L23.0524 17.7573C23.2935 17.9761 23.522 18.2059 23.7375 18.4464L22.9482 19.2357C22.6038 19.5798 22.5584 20.1225 22.8411 20.5191C23.5084 21.4558 23.9436 22.5068 24.1348 23.6424C24.2156 24.1225 24.6311 24.474 25.1179 24.474H26.2325C26.24 24.6337 26.2439 24.7963 26.2439 24.9612C26.2439 25.1254 26.2403 25.2854 26.2328 25.4419H25.1179C24.6304 25.4419 24.2143 25.7943 24.1345 26.2754C24.016 26.9862 23.7999 27.6674 23.4863 28.3117C23.3104 28.6859 23.1004 29.0443 22.8446 29.4071C22.5652 29.8038 22.6116 30.3435 22.9547 30.6866L23.7388 31.4708C23.521 31.7103 23.2909 31.9388 23.0491 32.1553L22.2611 31.3672C21.916 31.0216 21.3708 30.9774 20.9741 31.2627C20.0511 31.9261 19.0014 32.3607 17.8544 32.5539C17.3743 32.6347 17.0228 33.0501 17.0228 33.537V34.6561C16.6976 34.674 16.3789 34.6733 16.0549 34.6561V33.537C16.0549 33.0501 15.7034 32.6347 15.2234 32.5539C14.0871 32.3624 13.0364 31.9271 12.1003 31.2601C11.7037 30.9777 11.1607 31.0222 10.8167 31.3672L10.0283 32.1553C9.7881 31.9414 9.55895 31.7132 9.34117 31.4724L10.1247 30.685C10.4665 30.3416 10.5122 29.8021 10.2324 29.4065C9.57064 28.4695 9.125 27.3877 8.94389 26.2783C8.86502 25.796 8.44827 25.4419 7.95979 25.4419H6.84489C6.83742 25.2854 6.83385 25.1254 6.83385 24.9612C6.83385 24.7963 6.83775 24.6337 6.84521 24.474H7.95979C8.44762 24.474 8.86405 24.1208 8.94357 23.6392Z" fill="url(#paint1_linear_3_2)"/>
<path d="M50.323 12.486C50.578 12.486 50.7948 12.5752 50.9734 12.7538C51.1519 12.9323 51.2412 13.1491 51.2412 13.4042V15.2662C51.2412 15.5213 51.1519 15.7381 50.9734 15.9167C50.7948 16.0952 50.578 16.1845 50.323 16.1845H47.6957C47.4577 16.1845 47.2494 16.0952 47.0708 15.9167C46.8923 15.7381 46.803 15.5213 46.803 15.2662V13.4042C46.803 13.1491 46.8923 12.9323 47.0708 12.7538C47.2494 12.5752 47.4577 12.486 47.6957 12.486H50.323ZM61.7247 12.486C61.9627 12.486 62.171 12.5752 62.3496 12.7538C62.5281 12.9323 62.6174 13.1491 62.6174 13.4042V15.2662C62.6174 15.5213 62.5281 15.7381 62.3496 15.9167C62.171 16.0952 61.9627 16.1845 61.7247 16.1845H56.5977V30.6726C56.5977 30.9106 56.5084 31.1189 56.3299 31.2975C56.1513 31.476 55.943 31.5653 55.705 31.5653H53.7409C53.4859 31.5653 53.269 31.476 53.0905 31.2975C52.9119 31.1189 52.8227 30.9106 52.8227 30.6726V13.4042C52.8227 13.1491 52.9119 12.9323 53.0905 12.7538C53.269 12.5752 53.4859 12.486 53.7409 12.486H61.7247ZM84.0791 30.1624C84.1982 30.4345 84.1684 30.7108 83.9898 30.9914C83.8113 31.272 83.569 31.4123 83.2629 31.4123H66.2751C66.1221 31.4123 65.9776 31.374 65.8415 31.2975C65.7055 31.221 65.6034 31.1232 65.5354 31.0041C65.3484 30.7321 65.3229 30.4515 65.4589 30.1624L66.2496 28.3004C66.3176 28.1303 66.4282 27.9943 66.5812 27.8923C66.7343 27.7902 66.8958 27.7392 67.0659 27.7392H78.9522L74.769 17.7404L71.3511 25.9027C71.283 26.0728 71.1768 26.2046 71.0322 26.2981C70.8877 26.3916 70.7219 26.4384 70.5348 26.4384H68.3922C68.0691 26.4384 67.8141 26.3023 67.627 26.0303C67.559 25.9112 67.5165 25.7752 67.4995 25.6221C67.4825 25.4691 67.4995 25.3246 67.5505 25.1885L72.7284 13.0471C72.7965 12.8771 72.9027 12.741 73.0473 12.639C73.1918 12.537 73.3576 12.486 73.5447 12.486H75.9934C76.1804 12.486 76.3462 12.537 76.4907 12.639C76.6353 12.741 76.7416 12.8771 76.8096 13.0471L84.0791 30.1624ZM101.077 21.9491C101.808 22.4082 102.365 22.9694 102.748 23.6326C103.13 24.2958 103.322 25.0355 103.322 25.8517C103.322 27.7732 102.591 29.2442 101.128 30.2644C100.142 30.9786 98.807 31.4293 97.1235 31.6163H97.0214C96.7834 31.6163 96.5878 31.5398 96.4348 31.3868C96.2307 31.1997 96.1287 30.9786 96.1287 30.7236V28.8871C96.1287 28.666 96.2052 28.4704 96.3583 28.3004C96.5113 28.1303 96.6984 28.0283 96.9194 27.9943C97.7186 27.9093 98.3393 27.7222 98.7814 27.4331C99.1215 27.2291 99.3511 26.9655 99.4701 26.6424C99.5382 26.4554 99.5722 26.2173 99.5722 25.9282C99.5722 25.7412 99.5382 25.5796 99.4701 25.4436C99.4021 25.3076 99.2831 25.18 99.113 25.061C98.6199 24.7209 97.9822 24.4318 97.2 24.1937L96.7919 24.0662C95.9417 23.8281 95.1594 23.6326 94.4452 23.4795C94.2922 23.4455 94.0456 23.386 93.7055 23.301L93.4249 23.2245C92.8128 23.0714 92.1666 22.8589 91.4864 22.5868C90.4831 22.1617 89.6584 21.626 89.0122 20.9798C88.264 20.2316 87.8899 19.2454 87.8899 18.021C87.8899 16.3375 88.5361 14.9687 89.8284 13.9144C90.7127 13.1661 91.954 12.69 93.5525 12.486C93.8246 12.4519 94.0584 12.5285 94.2539 12.7155C94.4495 12.9026 94.5473 13.1236 94.5473 13.3787V15.2152C94.5473 15.4363 94.4792 15.6318 94.3432 15.8019C94.2072 15.9719 94.0329 16.0697 93.8203 16.0952C93.6077 16.1207 93.3909 16.1675 93.1699 16.2355C92.6767 16.4226 92.3281 16.6054 92.1241 16.7839C91.92 16.9625 91.7755 17.1453 91.6905 17.3323C91.6054 17.6214 91.5629 17.8935 91.5629 18.1485C91.5629 18.2846 91.6394 18.4291 91.7925 18.5822C92.0306 18.8202 92.3792 19.0328 92.8383 19.2198C93.0423 19.3049 93.3994 19.4324 93.9096 19.6025L97.098 20.3932L97.251 20.4442C98.0502 20.6652 98.6284 20.8353 98.9855 20.9543C99.7847 21.2264 100.482 21.558 101.077 21.9491ZM96.8174 16.1845C96.6133 16.1335 96.4475 16.0272 96.32 15.8657C96.1925 15.7041 96.1287 15.5128 96.1287 15.2917V13.4297C96.1287 13.1576 96.2392 12.9281 96.4603 12.741C96.5453 12.656 96.6559 12.6007 96.7919 12.5752C96.9279 12.5497 97.0555 12.5455 97.1745 12.5625C98.6709 12.8005 99.8868 13.3107 100.822 14.0929C102.097 15.1472 102.778 16.4906 102.863 18.123C102.88 18.3611 102.799 18.5779 102.62 18.7735C102.442 18.969 102.225 19.0668 101.97 19.0668H99.9803C99.7592 19.0668 99.5637 18.9903 99.3936 18.8372C99.2236 18.6842 99.13 18.4971 99.113 18.2761C99.045 17.834 98.9005 17.4684 98.6794 17.1793C98.3223 16.7542 97.7697 16.4311 97.0214 16.21C96.9704 16.21 96.9364 16.2015 96.9194 16.1845H96.8174ZM93.8331 27.8923C94.0371 27.9263 94.2072 28.0283 94.3432 28.1984C94.4792 28.3684 94.5473 28.5555 94.5473 28.7595V30.647C94.5473 30.9191 94.4452 31.1487 94.2412 31.3357C94.0711 31.4718 93.8756 31.5398 93.6545 31.5398H93.527C91.9455 31.3017 90.6447 30.7831 89.6244 29.9839C88.298 28.9296 87.5498 27.4587 87.3797 25.5711C87.3457 25.299 87.4223 25.0652 87.6093 24.8697C87.7964 24.6741 88.0174 24.5763 88.2725 24.5763H90.2876C90.5256 24.5763 90.7297 24.6571 90.8997 24.8187C91.0698 24.9802 91.1633 25.18 91.1803 25.4181C91.2313 26.2683 91.6479 26.923 92.4302 27.3821C92.7873 27.5862 93.2549 27.7562 93.8331 27.8923ZM124.732 29.9584C124.834 30.0774 124.894 30.2219 124.911 30.392C124.928 30.562 124.898 30.7236 124.822 30.8766C124.745 31.0297 124.635 31.1487 124.49 31.2337C124.346 31.3187 124.188 31.3612 124.018 31.3612H121.595C121.442 31.3612 121.302 31.3272 121.174 31.2592C121.047 31.1912 120.94 31.0977 120.855 30.9786L114.759 22.2042L112.259 24.5508V30.4685C112.259 30.7066 112.17 30.9149 111.992 31.0934C111.813 31.272 111.605 31.3612 111.367 31.3612H109.428C109.19 31.3612 108.982 31.272 108.803 31.0934C108.625 30.9149 108.535 30.7066 108.535 30.4685V23.3775C108.535 23.1054 108.629 22.8929 108.816 22.7398L119.478 12.741C119.648 12.571 119.852 12.486 120.09 12.486H122.845C123.015 12.486 123.176 12.537 123.33 12.639C123.483 12.741 123.593 12.8771 123.661 13.0471C123.729 13.2172 123.746 13.3915 123.712 13.57C123.678 13.7486 123.593 13.9059 123.457 14.0419L117.488 19.6535L124.732 29.9584ZM109.428 18.9903C109.19 18.9903 108.982 18.9053 108.803 18.7352C108.625 18.5652 108.535 18.3526 108.535 18.0975V13.3787C108.535 13.1406 108.625 12.9323 108.803 12.7538C108.982 12.5752 109.19 12.486 109.428 12.486H111.367C111.605 12.486 111.813 12.5752 111.992 12.7538C112.17 12.9323 112.259 13.1406 112.259 13.3787V18.0975C112.259 18.3526 112.17 18.5652 111.992 18.7352C111.813 18.9053 111.605 18.9903 111.367 18.9903H109.428ZM136.501 12.69C136.705 12.8601 136.807 13.0896 136.807 13.3787V15.2917C136.807 15.5128 136.744 15.7041 136.616 15.8657C136.489 16.0272 136.314 16.1335 136.093 16.1845C135.005 16.4056 134.078 16.9242 133.313 17.7404C132.276 18.8287 131.757 20.2444 131.757 21.9874C131.757 23.7304 132.276 25.1545 133.313 26.2598C134.078 27.059 135.005 27.5692 136.093 27.7902C136.314 27.8413 136.489 27.9475 136.616 28.1091C136.744 28.2706 136.807 28.4619 136.807 28.683V30.596C136.807 30.8681 136.705 31.0977 136.501 31.2847C136.314 31.4208 136.119 31.4888 135.915 31.4888H135.762C133.789 31.1657 132.097 30.2729 130.686 28.8105C128.917 26.991 128.033 24.7251 128.033 22.0129C128.033 19.3006 128.917 17.0177 130.686 15.1642C132.063 13.7358 133.755 12.8516 135.762 12.5115C136.034 12.4605 136.28 12.52 136.501 12.69ZM144.511 15.1642C146.279 17.0177 147.163 19.3006 147.163 22.0129C147.163 24.7251 146.279 26.991 144.511 28.8105C143.099 30.2729 141.407 31.1657 139.435 31.4888H139.282C139.078 31.4888 138.882 31.4208 138.695 31.2847C138.491 31.0977 138.389 30.8681 138.389 30.596V28.683C138.389 28.4619 138.453 28.2706 138.58 28.1091C138.708 27.9475 138.882 27.8413 139.103 27.7902C140.191 27.5692 141.118 27.059 141.883 26.2598C142.921 25.1545 143.439 23.7304 143.439 21.9874C143.439 20.2444 142.921 18.8287 141.883 17.7404C141.118 16.9242 140.191 16.4056 139.103 16.1845C138.882 16.1335 138.708 16.0272 138.58 15.8657C138.453 15.7041 138.389 15.5128 138.389 15.2917V13.3787C138.389 13.0896 138.495 12.8601 138.708 12.69C138.92 12.52 139.163 12.4605 139.435 12.5115C141.441 12.8516 143.133 13.7358 144.511 15.1642ZM170.002 12.486C170.241 12.486 170.449 12.5752 170.627 12.7538C170.806 12.9323 170.895 13.1406 170.895 13.3787V30.4685C170.895 30.7066 170.806 30.9149 170.627 31.0934C170.449 31.272 170.241 31.3612 170.002 31.3612H168.064C167.809 31.3612 167.596 31.272 167.426 31.0934C167.256 30.9149 167.171 30.7066 167.171 30.4685V18.9393L162.452 25.01C162.265 25.231 162.027 25.3416 161.738 25.3416C161.602 25.3416 161.466 25.3118 161.33 25.2523C161.194 25.1928 161.092 25.1035 161.024 24.9845L152.658 13.9144C152.556 13.7953 152.496 13.6465 152.479 13.468C152.462 13.2894 152.496 13.1279 152.581 12.9833C152.666 12.8388 152.777 12.7198 152.913 12.6262C153.049 12.5327 153.202 12.486 153.372 12.486H155.616C155.906 12.486 156.144 12.605 156.331 12.8431L161.738 19.9851L167.018 12.8431C167.205 12.605 167.452 12.486 167.758 12.486H170.002ZM155.31 24.8569C155.548 24.8569 155.757 24.9419 155.935 25.112C156.114 25.282 156.203 25.4946 156.203 25.7497V30.4685C156.203 30.7066 156.114 30.9149 155.935 31.0934C155.757 31.272 155.548 31.3612 155.31 31.3612H153.372C153.134 31.3612 152.925 31.272 152.747 31.0934C152.568 30.9149 152.479 30.7066 152.479 30.4685V25.7497C152.479 25.4946 152.568 25.282 152.747 25.112C152.925 24.9419 153.134 24.8569 153.372 24.8569H155.31ZM194.066 30.1624C194.185 30.4345 194.155 30.7108 193.977 30.9914C193.798 31.272 193.556 31.4123 193.25 31.4123H176.262C176.109 31.4123 175.964 31.374 175.828 31.2975C175.692 31.221 175.59 31.1232 175.522 31.0041C175.335 30.7321 175.31 30.4515 175.446 30.1624L176.236 28.3004C176.304 28.1303 176.415 27.9943 176.568 27.8923C176.721 27.7902 176.883 27.7392 177.053 27.7392H188.939L184.756 17.7404L181.338 25.9027C181.27 26.0728 181.164 26.2046 181.019 26.2981C180.874 26.3916 180.709 26.4384 180.522 26.4384H178.379C178.056 26.4384 177.801 26.3023 177.614 26.0303C177.546 25.9112 177.503 25.7752 177.486 25.6221C177.469 25.4691 177.486 25.3246 177.537 25.1885L182.715 13.0471C182.783 12.8771 182.89 12.741 183.034 12.639C183.179 12.537 183.344 12.486 183.531 12.486H185.98C186.167 12.486 186.333 12.537 186.478 12.639C186.622 12.741 186.728 12.8771 186.796 13.0471L194.066 30.1624ZM200.402 12.486C200.657 12.486 200.874 12.5752 201.052 12.7538C201.231 12.9323 201.32 13.1491 201.32 13.4042V15.2662C201.32 15.5213 201.231 15.7381 201.052 15.9167C200.874 16.0952 200.657 16.1845 200.402 16.1845H197.775C197.537 16.1845 197.328 16.0952 197.15 15.9167C196.971 15.7381 196.882 15.5213 196.882 15.2662V13.4042C196.882 13.1491 196.971 12.9323 197.15 12.7538C197.328 12.5752 197.537 12.486 197.775 12.486H200.402ZM211.804 12.486C212.042 12.486 212.25 12.5752 212.429 12.7538C212.607 12.9323 212.696 13.1491 212.696 13.4042V15.2662C212.696 15.5213 212.607 15.7381 212.429 15.9167C212.25 16.0952 212.042 16.1845 211.804 16.1845H206.677V30.6726C206.677 30.9106 206.587 31.1189 206.409 31.2975C206.23 31.476 206.022 31.5653 205.784 31.5653H203.82C203.565 31.5653 203.348 31.476 203.169 31.2975C202.991 31.1189 202.902 30.9106 202.902 30.6726V13.4042C202.902 13.1491 202.991 12.9323 203.169 12.7538C203.348 12.5752 203.565 12.486 203.82 12.486H211.804ZM220.206 20.0616C220.461 20.0616 220.673 20.1509 220.843 20.3294C221.013 20.508 221.098 20.7248 221.098 20.9798V30.5195C221.098 30.7576 221.013 30.9659 220.843 31.1444C220.673 31.323 220.461 31.4123 220.206 31.4123H218.267C218.029 31.4123 217.821 31.323 217.642 31.1444C217.464 30.9659 217.374 30.7576 217.374 30.5195V20.9798C217.374 20.7248 217.464 20.508 217.642 20.3294C217.821 20.1509 218.029 20.0616 218.267 20.0616H220.206ZM220.206 12.486C220.461 12.486 220.673 12.5752 220.843 12.7538C221.013 12.9323 221.098 13.1406 221.098 13.3787V18.0975C221.098 18.3526 221.013 18.5694 220.843 18.748C220.673 18.9265 220.461 19.0158 220.206 19.0158H218.267C218.029 19.0158 217.821 18.9265 217.642 18.748C217.464 18.5694 217.374 18.3526 217.374 18.0975V13.3787C217.374 13.1406 217.464 12.9323 217.642 12.7538C217.821 12.5752 218.029 12.486 218.267 12.486H220.206ZM236.898 16.1335C236.676 16.0995 236.494 15.9974 236.349 15.8274C236.205 15.6573 236.132 15.4618 236.132 15.2407V13.3787C236.132 13.0896 236.234 12.8601 236.438 12.69C236.642 12.52 236.881 12.4519 237.153 12.486C238.615 12.724 239.916 13.2427 241.055 14.0419C242.535 15.1132 243.58 16.5331 244.193 18.3016C244.295 18.5907 244.261 18.8627 244.091 19.1178C243.921 19.3729 243.674 19.5004 243.351 19.5004H241.31C241.123 19.5004 240.953 19.4537 240.8 19.3601C240.647 19.2666 240.537 19.1348 240.469 18.9648C240.094 18.0805 239.525 17.3748 238.76 16.8477C238.164 16.4736 237.544 16.2355 236.898 16.1335ZM243.351 24.6019C243.674 24.6019 243.921 24.7294 244.091 24.9845C244.261 25.2395 244.295 25.5116 244.193 25.8007C243.58 27.5692 242.535 28.9891 241.055 30.0604C239.916 30.8596 238.615 31.3783 237.153 31.6163H237.025C236.787 31.6163 236.591 31.5398 236.438 31.3868C236.234 31.2337 236.132 31.0127 236.132 30.7236V28.8615C236.132 28.6405 236.2 28.4449 236.336 28.2749C236.472 28.1048 236.651 28.0028 236.872 27.9688C237.586 27.8668 238.215 27.6287 238.76 27.2546C239.525 26.7274 240.094 26.0218 240.469 25.1375C240.537 24.9675 240.647 24.8357 240.8 24.7421C240.953 24.6486 241.123 24.6019 241.31 24.6019H243.351ZM234.219 12.792C234.44 12.9621 234.551 13.1917 234.551 13.4807V15.4703C234.551 15.6573 234.487 15.8316 234.36 15.9932C234.232 16.1547 234.075 16.2695 233.888 16.3375C233.65 16.3886 233.463 16.4481 233.327 16.5161C232.646 16.8222 232.068 17.2388 231.592 17.7659C230.623 18.8542 230.138 20.2784 230.138 22.0384C230.138 23.7984 230.623 25.231 231.592 26.3363C232.187 27.0165 232.952 27.4927 233.888 27.7647C234.075 27.8158 234.232 27.922 234.36 28.0836C234.487 28.2451 234.551 28.4194 234.551 28.6065V30.6215C234.551 30.9106 234.44 31.1402 234.219 31.3102C234.066 31.4463 233.871 31.5143 233.633 31.5143H233.454C231.635 31.1232 230.096 30.2389 228.837 28.8615C227.222 27.042 226.414 24.7719 226.414 22.0511C226.414 19.3304 227.222 17.0602 228.837 15.2407C230.096 13.8463 231.635 12.9706 233.454 12.6135C233.726 12.5455 233.981 12.605 234.219 12.792Z" fill="#E9C871"/>
<defs>
<linearGradient id="paint0_linear_3_2" x1="13.7316" y1="22.1507" x2="19.5522" y2="26.8292" gradientUnits="userSpaceOnUse">
<stop stop-color="#E9C871"/>
<stop offset="1" stop-color="#E9C871"/>
</linearGradient>
<linearGradient id="paint1_linear_3_2" x1="0" y1="0" x2="47" y2="40" gradientUnits="userSpaceOnUse">
<stop stop-color="#E9C871"/>
<stop offset="1" stop-color="#E9C871"/>
</linearGradient>
</defs>
</svg>
